<svg width="188" height="42" viewBox="0 0 188 42" fill="none" xmlns="http://www.w3.org/2000/svg">
<path d="M68.0429 11.5894V30.5068H64.935V17.0214L59.1787 26.5342H58.8004L53.044 16.9944V30.5068H49.9362V11.5894H53.2873L58.9895 21.0481L64.7188 11.5894H68.0429ZM73.9227 24.9937C74.1389 26.0207 74.6344 26.8134 75.4091 27.3719C76.1838 27.9124 77.1297 28.1827 78.2467 28.1827C79.7961 28.1827 80.9582 27.6242 81.7329 26.5071L84.1381 27.9124C82.8049 29.8763 80.8321 30.8582 78.2197 30.8582C76.0216 30.8582 74.247 30.1915 72.8958 28.8583C71.5445 27.5071 70.8689 25.8045 70.8689 23.7506C70.8689 21.7327 71.5355 20.0482 72.8687 18.6969C74.202 17.3277 75.9135 16.643 78.0035 16.643C79.9853 16.643 81.6068 17.3367 82.868 18.724C84.1471 20.1112 84.7867 21.7958 84.7867 23.7776C84.7867 24.0839 84.7507 24.4893 84.6786 24.9937H73.9227ZM73.8957 22.6156H81.841C81.6428 21.5165 81.1834 20.6878 80.4627 20.1293C79.7601 19.5707 78.9313 19.2915 77.9764 19.2915C76.8954 19.2915 75.9946 19.5888 75.274 20.1833C74.5533 20.7779 74.0939 21.5886 73.8957 22.6156ZM96.4083 16.9944V19.805H90.2736V30.5068H87.3549V16.9944H96.4083ZM108.561 16.9944H111.479V30.5068H108.561V28.561C107.462 30.0925 105.885 30.8582 103.831 30.8582C101.976 30.8582 100.39 30.1735 99.0749 28.8043C97.7597 27.417 97.1021 25.7324 97.1021 23.7506C97.1021 21.7508 97.7597 20.0662 99.0749 18.6969C100.39 17.3277 101.976 16.643 103.831 16.643C105.885 16.643 107.462 17.3997 108.561 18.9131V16.9944ZM101.237 26.8585C102.048 27.6692 103.066 28.0746 104.291 28.0746C105.516 28.0746 106.534 27.6692 107.345 26.8585C108.155 26.0297 108.561 24.9937 108.561 23.7506C108.561 22.5075 108.155 21.4805 107.345 20.6698C106.534 19.841 105.516 19.4266 104.291 19.4266C103.066 19.4266 102.048 19.841 101.237 20.6698C100.426 21.4805 100.021 22.5075 100.021 23.7506C100.021 24.9937 100.426 26.0297 101.237 26.8585ZM121.151 30.8582C119.079 30.8582 117.386 30.1915 116.07 28.8583C114.773 27.5071 114.125 25.7865 114.125 23.6966C114.125 21.4084 114.467 19.6428 115.152 18.3997C115.836 17.1385 117.223 15.9944 119.313 14.9675C119.656 14.8053 120.16 14.5711 120.827 14.2649C121.511 13.9586 121.98 13.7424 122.232 13.6163C122.484 13.4721 122.8 13.2739 123.178 13.0217C123.556 12.7515 123.836 12.4722 124.016 12.1839C124.196 11.8776 124.34 11.5173 124.448 11.1029L126.826 12.4812C126.754 12.8776 126.637 13.2469 126.475 13.5892C126.313 13.9135 126.079 14.2198 125.772 14.5081C125.466 14.7963 125.196 15.0306 124.962 15.2107C124.745 15.3909 124.376 15.6071 123.854 15.8593C123.331 16.1116 122.944 16.2917 122.692 16.3998C122.457 16.5079 122.007 16.6971 121.34 16.9673C120.151 17.4358 119.277 17.9222 118.719 18.4267C118.178 18.9131 117.8 19.5257 117.584 20.2644C118.665 19.0393 120.133 18.4267 121.989 18.4267C123.574 18.4267 124.953 18.9942 126.124 20.1293C127.313 21.2643 127.907 22.7327 127.907 24.5343C127.907 26.372 127.277 27.8854 126.016 29.0745C124.772 30.2636 123.151 30.8582 121.151 30.8582ZM121.124 28.1286C122.259 28.1286 123.187 27.7953 123.908 27.1287C124.628 26.4441 124.989 25.5793 124.989 24.5343C124.989 23.4713 124.628 22.5975 123.908 21.9129C123.205 21.2283 122.286 20.886 121.151 20.886C120.142 20.886 119.232 21.2103 118.422 21.8589C117.611 22.4894 117.205 23.3362 117.205 24.3992C117.205 25.4802 117.584 26.372 118.341 27.0747C119.097 27.7773 120.025 28.1286 121.124 28.1286ZM139.998 16.9944H142.241V30.5068H139.376V21.9129L132.458 30.5068H130.215V16.9944H133.079V25.5613L139.998 16.9944ZM155.951 16.9944V19.805H151.546V30.5068H148.627V19.805H144.195V16.9944H155.951ZM169.871 30.5068H166.385L160.845 24.2641V30.5068H157.926V16.9944H160.845V22.9669L166.087 16.9944H169.655L163.709 23.6155L169.871 30.5068ZM181.454 16.9944H184.373V30.5068H181.454V28.561C180.355 30.0925 178.779 30.8582 176.725 30.8582C174.869 30.8582 173.284 30.1735 171.968 28.8043C170.653 27.417 169.995 25.7324 169.995 23.7506C169.995 21.7508 170.653 20.0662 171.968 18.6969C173.284 17.3277 174.869 16.643 176.725 16.643C178.779 16.643 180.355 17.3997 181.454 18.9131V16.9944ZM174.13 26.8585C174.941 27.6692 175.959 28.0746 177.184 28.0746C178.409 28.0746 179.427 27.6692 180.238 26.8585C181.049 26.0297 181.454 24.9937 181.454 23.7506C181.454 22.5075 181.049 21.4805 180.238 20.6698C179.427 19.841 178.409 19.4266 177.184 19.4266C175.959 19.4266 174.941 19.841 174.13 20.6698C173.32 21.4805 172.914 22.5075 172.914 23.7506C172.914 24.9937 173.32 26.0297 174.13 26.8585Z" fill="#0A0A0A"/>
<path fill-rule="evenodd" clip-rule="evenodd" d="M18.9524 7.17583C18.9524 7.17583 33.0696 14.0211 11.1066 39.6759C12.5069 41.0807 13.8514 41.9226 15.0127 41.9226C20.4711 41.9226 30.0255 23.303 30.0255 15.0127C30.0255 6.72022 23.303 0 15.0127 0C6.72022 0 0 6.72245 0 15.0127C0 16.9446 0.518143 19.437 1.38469 22.1238C0.560577 16.6699 8.20988 6.11498 15.14 6.11498C16.5337 6.11721 17.8402 6.50358 18.9524 7.17583Z" fill="#FF312C"/>
<path fill-rule="evenodd" clip-rule="evenodd" d="M22.5212 13.4987C22.5212 17.5746 19.2158 20.88 15.1399 20.88C11.1645 20.88 7.92386 17.7376 7.76529 13.8024C2.96354 18.937 3.09754 26.6421 3.09754 26.6734C5.27955 31.7766 8.30354 36.8598 11.1087 39.6761C33.0717 14.0213 18.9545 7.17603 18.9545 7.17603C21.0918 8.46915 22.5212 10.8164 22.5212 13.4987Z" fill="#FF312C" fill-opacity="0.3"/>
<mask id="mask0_856_473" style="mask-type:alpha" maskUnits="userSpaceOnUse" x="11" y="7" width="13" height="33">
<mask id="mask1_856_473" style="mask-type:alpha" maskUnits="userSpaceOnUse" x="11" y="7" width="13" height="33">
<path d="M23.419 7.17603H11.1064V39.6761H23.419V7.17603Z" fill="url(#paint0_linear_856_473)"/>
</mask>
<g mask="url(#mask1_856_473)">
<path d="M23.419 7.17603H11.1064V39.6761H23.419V7.17603Z" fill="url(#paint1_linear_856_473)"/>
</g>
</mask>
<g mask="url(#mask0_856_473)">
<path fill-rule="evenodd" clip-rule="evenodd" d="M15.9283 20.8393C18.1974 28.0285 11.1064 39.6778 11.1064 39.6778C33.0694 14.023 18.9523 7.17773 18.9523 7.17773C21.0919 8.47086 22.5212 10.8181 22.5212 13.5004C22.5212 17.3083 19.6335 20.444 15.9283 20.8393Z" fill="#FF312C" fill-opacity="0.5"/>
</g>
<mask id="mask2_856_473" style="mask-type:alpha" maskUnits="userSpaceOnUse" x="11" y="6" width="14" height="34">
<mask id="mask3_856_473" style="mask-type:alpha" maskUnits="userSpaceOnUse" x="11" y="6" width="14" height="34">
<path d="M24.2633 6.11694H11.1064V39.9816H24.2633V6.11694Z" fill="url(#paint2_linear_856_473)"/>
</mask>
<g mask="url(#mask3_856_473)">
<path d="M24.2633 6.11694H11.1064V39.9816H24.2633V6.11694Z" fill="url(#paint3_linear_856_473)"/>
</g>
</mask>
<g mask="url(#mask2_856_473)">
</g>
<mask id="mask4_856_473" style="mask-type:alpha" maskUnits="userSpaceOnUse" x="1" y="0" width="30" height="37">
<mask id="mask5_856_473" style="mask-type:alpha" maskUnits="userSpaceOnUse" x="1" y="0" width="30" height="37">
<path d="M30.028 0H1.46094V36.9087H30.028V0Z" fill="url(#paint4_linear_856_473)"/>
</mask>
<g mask="url(#mask5_856_473)">
<path d="M30.028 0H1.46094V36.9087H30.028V0Z" fill="url(#paint5_linear_856_473)"/>
</g>
</mask>
<g mask="url(#mask4_856_473)">
</g>
<defs>
<linearGradient id="paint0_linear_856_473" x1="11.5126" y1="35.0031" x2="27.4367" y2="2.94406" gradientUnits="userSpaceOnUse">
<stop stop-color="white"/>
<stop offset="1"/>
</linearGradient>
<linearGradient id="paint1_linear_856_473" x1="11.5126" y1="35.0031" x2="27.4367" y2="2.94406" gradientUnits="userSpaceOnUse">
<stop stop-color="white"/>
<stop offset="1" stop-color="white"/>
</linearGradient>
<linearGradient id="paint2_linear_856_473" x1="35.5968" y1="1.07202" x2="10.4978" y2="31.8657" gradientUnits="userSpaceOnUse">
<stop stop-color="white"/>
<stop offset="1"/>
</linearGradient>
<linearGradient id="paint3_linear_856_473" x1="35.5968" y1="1.07202" x2="10.4978" y2="31.8657" gradientUnits="userSpaceOnUse">
<stop stop-color="white"/>
<stop offset="1" stop-color="white"/>
</linearGradient>
<linearGradient id="paint4_linear_856_473" x1="30.9943" y1="-8.59283" x2="17.4957" y2="15.3461" gradientUnits="userSpaceOnUse">
<stop stop-color="white"/>
<stop offset="1"/>
</linearGradient>
<linearGradient id="paint5_linear_856_473" x1="30.9943" y1="-8.59283" x2="17.4957" y2="15.3461" gradientUnits="userSpaceOnUse">
<stop stop-color="white"/>
<stop offset="1" stop-color="white"/>
</linearGradient>
</defs>
</svg>
