<svg width="993" height="901" viewBox="0 0 993 901" fill="none" xmlns="http://www.w3.org/2000/svg">
<path d="M920.054 318.076C920.054 324.868 914.399 330.528 907.613 330.528C900.828 330.528 895.173 324.868 895.173 318.076C895.173 311.285 900.828 305.625 907.613 305.625C914.682 305.908 920.054 311.285 920.054 318.076Z" fill="#23A9B1"/>
<path d="M759.175 600.497C759.175 602.76 757.479 604.458 755.217 604.458C752.955 604.458 751.259 602.76 751.259 600.497C751.259 598.233 752.955 596.535 755.217 596.535C757.196 596.252 759.175 598.233 759.175 600.497Z" fill="#23A9B1"/>
<path d="M883.58 87.4427C888.109 87.4427 891.78 83.7685 891.78 79.2361C891.78 74.7038 888.109 71.0295 883.58 71.0295C879.052 71.0295 875.381 74.7038 875.381 79.2361C875.381 83.7685 879.052 87.4427 883.58 87.4427Z" fill="#23A9B1"/>
<path d="M284.458 746.234C286.488 746.234 288.134 744.587 288.134 742.556C288.134 740.524 286.488 738.877 284.458 738.877C282.428 738.877 280.783 740.524 280.783 742.556C280.783 744.587 282.428 746.234 284.458 746.234Z" fill="#23A9B1"/>
<path d="M668.833 856.924C668.833 861.168 665.158 864.847 660.917 864.847C656.676 864.847 653 861.168 653 856.924C653 852.679 656.676 849 660.917 849C665.441 849 668.833 852.396 668.833 856.924Z" fill="#23A9B1"/>
<path d="M686.229 301.663C686.229 306.757 681.988 311.002 676.899 311.002C671.809 311.002 667.568 306.757 667.568 301.663C667.568 296.569 671.809 292.325 676.899 292.325C681.988 292.325 686.229 296.286 686.229 301.663Z" fill="#DBDBDB" fill-opacity="0.1"/>
<path d="M678.878 807.925C678.878 810.189 677.182 811.887 674.92 811.887C672.658 811.887 670.961 810.189 670.961 807.925C670.961 805.661 672.658 803.964 674.92 803.964C677.182 803.964 678.878 805.661 678.878 807.925Z" fill="#DBDBDB" fill-opacity="0.1"/>
<path d="M218.015 806.793C218.015 811.604 214.057 815.566 209.25 815.566C204.444 815.566 200.485 811.604 200.485 806.793C200.485 801.983 204.444 798.021 209.25 798.021C214.057 798.021 218.015 801.983 218.015 806.793Z" fill="#DBDBDB" fill-opacity="0.1"/>
<path d="M947.196 753.592C951.256 753.592 954.548 750.298 954.548 746.234C954.548 742.171 951.256 738.877 947.196 738.877C943.136 738.877 939.845 742.171 939.845 746.234C939.845 750.298 943.136 753.592 947.196 753.592Z" fill="#DBDBDB" fill-opacity="0.1"/>
<path d="M626.289 487.585C626.289 490.415 623.744 492.962 620.917 492.962C618.09 492.962 615.545 490.415 615.545 487.585C615.545 484.755 618.09 482.208 620.917 482.208C623.744 482.208 626.289 484.472 626.289 487.585Z" fill="#DBDBDB" fill-opacity="0.1"/>
<path d="M9.91976 802.832C9.91976 805.379 7.9406 807.642 5.11322 807.642C2.56858 807.642 0.306641 805.662 0.306641 802.832C0.306641 800.285 2.28584 798.021 5.11322 798.021C7.65787 798.021 9.91976 800.285 9.91976 802.832Z" fill="#DBDBDB" fill-opacity="0.1"/>
<path d="M596.601 385.427C596.601 387.691 594.905 389.389 592.643 389.389C590.381 389.389 588.685 387.691 588.685 385.427C588.685 383.163 590.381 381.465 592.643 381.465C594.905 381.465 596.601 383.163 596.601 385.427Z" fill="#23A9B1" fill-opacity="0.3"/>
<path d="M891.214 472.87C897.46 472.87 902.524 467.802 902.524 461.55C902.524 455.299 897.46 450.231 891.214 450.231C884.968 450.231 879.905 455.299 879.905 461.55C879.905 467.802 884.968 472.87 891.214 472.87Z" fill="#23A9B1" fill-opacity="0.3"/>
<path d="M486.899 485.604C486.899 491.547 482.093 496.075 476.438 496.075C470.5 496.075 465.977 491.264 465.977 485.604C465.977 479.661 470.783 475.134 476.438 475.134C482.093 475.134 486.899 479.944 486.899 485.604Z" fill="#23A9B1" fill-opacity="0.3"/>
<path d="M791.408 305.059C794.843 305.059 797.628 302.272 797.628 298.833C797.628 295.395 794.843 292.608 791.408 292.608C787.972 292.608 785.188 295.395 785.188 298.833C785.188 302.272 787.972 305.059 791.408 305.059Z" fill="#23A9B1" fill-opacity="0.3"/>
<path d="M793.67 746.517C793.67 753.026 788.298 758.403 781.795 758.403C775.292 758.403 769.92 753.026 769.92 746.517C769.92 740.009 775.292 734.632 781.795 734.632C788.581 734.632 793.67 740.009 793.67 746.517Z" fill="#23A9B1" fill-opacity="0.3"/>
<path d="M929.102 605.307C929.102 608.42 926.557 611.25 923.164 611.25C920.054 611.25 917.227 608.703 917.227 605.307C917.227 602.194 919.771 599.365 923.164 599.365C926.274 599.648 929.102 602.194 929.102 605.307Z" fill="#23A9B1"/>
<path d="M600.277 603.609C604.181 603.609 607.345 600.442 607.345 596.535C607.345 592.628 604.181 589.46 600.277 589.46C596.373 589.46 593.208 592.628 593.208 596.535C593.208 600.442 596.373 603.609 600.277 603.609Z" fill="#23A9B1"/>
<path d="M969.816 109.516C969.816 112.063 967.837 114.043 965.292 114.043C962.747 114.043 960.768 112.063 960.768 109.516C960.768 106.969 962.747 104.988 965.292 104.988C967.837 104.988 969.816 106.969 969.816 109.516Z" fill="#23A9B1"/>
<path d="M689.622 193.28C692.901 193.28 695.56 190.619 695.56 187.337C695.56 184.055 692.901 181.394 689.622 181.394C686.343 181.394 683.685 184.055 683.685 187.337C683.685 190.619 686.343 193.28 689.622 193.28Z" fill="#23A9B1"/>
<path d="M343.833 631.059C346.019 631.059 347.792 629.285 347.792 627.097C347.792 624.909 346.019 623.135 343.833 623.135C341.647 623.135 339.875 624.909 339.875 627.097C339.875 629.285 341.647 631.059 343.833 631.059Z" fill="#23A9B1" fill-opacity="0.3"/>
<path d="M352.315 498.339C352.315 501.451 349.771 503.715 346.943 503.715C344.116 503.715 341.571 501.168 341.571 498.339C341.571 495.226 344.116 492.962 346.943 492.962C349.771 492.962 352.315 495.226 352.315 498.339Z" fill="#23A9B1" fill-opacity="0.3"/>
<path d="M508.67 342.413C512.574 342.413 515.738 339.246 515.738 335.339C515.738 331.431 512.574 328.264 508.67 328.264C504.766 328.264 501.602 331.431 501.602 335.339C501.602 339.246 504.766 342.413 508.67 342.413Z" fill="#23A9B1" fill-opacity="0.3"/>
<path d="M646.363 698.693C646.363 703.503 642.405 707.182 637.881 707.182C633.357 707.182 629.399 703.22 629.399 698.693C629.399 693.882 633.357 690.203 637.881 690.203C642.405 690.203 646.363 693.882 646.363 698.693Z" fill="#23A9B1" fill-opacity="0.3"/>
<path d="M837.777 189.035C837.777 190.733 836.363 192.148 834.667 192.148C832.97 192.148 831.557 190.733 831.557 189.035C831.557 187.337 832.97 185.922 834.667 185.922C836.363 185.922 837.777 187.054 837.777 189.035Z" fill="#23A9B1" fill-opacity="0.3"/>
<path d="M752.673 470.04C756.108 470.04 758.893 467.253 758.893 463.814C758.893 460.376 756.108 457.589 752.673 457.589C749.238 457.589 746.453 460.376 746.453 463.814C746.453 467.253 749.238 470.04 752.673 470.04Z" fill="#23A9B1" fill-opacity="0.3"/>
<path d="M1004.31 71.3125L871.14 46.4098C871.14 46.4098 870.857 46.4098 870.857 46.1268V45.8438L1002.33 -66.5017H1002.61L1002.9 -66.2187L1004.59 71.0295C1004.59 71.0295 1004.59 71.3125 1004.31 71.3125C1004.59 71.3125 1004.31 71.3125 1004.31 71.3125ZM871.988 46.1268L1004.03 70.7466L1002.33 -65.0868L871.988 46.1268Z" fill="#C7C7C7" fill-opacity="0.1"/>
<path d="M742.777 206.58C742.777 206.58 742.494 206.58 742.494 206.297V206.014L791.691 102.158L791.973 101.875H792.256L857.569 187.903V188.186L857.286 188.469L742.777 206.58ZM792.256 103.007L743.342 205.731L856.72 188.186L792.256 103.007Z" fill="#C7C7C7" fill-opacity="0.1"/>
<path d="M857.286 188.752C857.286 188.752 857.003 188.752 857.286 188.752C857.003 188.469 857.003 188.469 857.003 188.469L870.857 46.4098C870.857 46.1268 870.857 46.1268 871.14 46.1268H871.423L970.664 175.168V175.451L970.381 175.734L857.286 188.752ZM871.423 47.2587L857.568 188.186L969.533 175.168L871.423 47.2587Z" fill="#C7C7C7" fill-opacity="0.1"/>
<path d="M857.286 188.752C857.286 188.752 857.003 188.752 857.286 188.752L791.69 102.724V102.441C791.69 102.441 791.69 102.158 791.973 102.158L871.14 46.1268H871.423L871.705 46.4098L857.851 188.469C857.568 188.469 857.568 188.752 857.286 188.752ZM792.539 102.441L857.003 187.337L870.857 46.9757L792.539 102.441Z" fill="#C7C7C7" fill-opacity="0.1"/>
<path d="M1058.03 184.507L970.381 175.451C970.381 175.451 970.098 175.451 970.098 175.168V174.885L1004.03 70.7465L1004.31 70.4636C1004.59 70.4636 1004.59 70.4636 1004.59 70.7465L1058.31 183.941V184.224C1058.31 184.507 1058.31 184.507 1058.03 184.507ZM970.664 174.885L1057.46 183.941L1004.31 71.8785L970.664 174.885Z" fill="#C7C7C7" fill-opacity="0.1"/>
<path d="M970.381 175.451C970.099 175.451 970.099 175.451 970.381 175.451L870.857 46.4097V46.1267L871.14 45.8438L1004.31 70.7465C1004.31 70.7465 1004.59 70.7465 1004.59 71.0295C1004.59 71.3125 1004.59 71.3125 1004.59 71.3125L970.664 175.451H970.381ZM871.988 46.6927L970.099 174.319L1003.74 71.3125L871.988 46.6927Z" fill="#C7C7C7" fill-opacity="0.1"/>
<path d="M783.491 259.781C783.491 259.781 783.209 259.781 783.491 259.781L685.381 239.689C685.099 239.689 685.099 239.406 685.099 239.406C685.099 239.123 685.099 239.123 685.381 239.123L742.777 206.297C743.06 206.297 743.06 206.297 743.343 206.297L783.774 259.215V259.498C783.491 259.498 783.491 259.781 783.491 259.781ZM686.23 238.84L782.361 258.649L742.777 206.58L686.23 238.84Z" fill="#C7C7C7" fill-opacity="0.1"/>
<path d="M783.491 259.781C783.491 259.781 783.208 259.781 783.208 259.498V259.215L857.003 188.186H857.286C857.286 188.186 857.569 188.186 857.569 188.469L880.47 246.198V246.481L880.188 246.764L783.491 259.781ZM857.286 189.035L784.622 258.932L879.905 246.198L857.286 189.035Z" fill="#C7C7C7" fill-opacity="0.1"/>
<path d="M783.491 259.781C783.208 259.781 783.208 259.498 783.491 259.781L742.494 206.58V206.297L742.777 206.014L857.286 188.186C857.569 188.186 857.569 188.186 857.569 188.469V188.752L783.491 259.781C783.491 259.498 783.491 259.781 783.491 259.781ZM743.342 206.297L783.208 258.649L856.155 188.752L743.342 206.297Z" fill="#C7C7C7" fill-opacity="0.1"/>
<path d="M913.268 260.347C912.985 260.347 912.985 260.347 913.268 260.347L879.905 246.481L879.622 246.198V245.915L969.816 174.885C969.816 174.885 970.098 174.885 970.381 174.885C970.381 174.885 970.664 175.168 970.381 175.451L913.268 260.347ZM880.753 246.198L912.985 259.498L968.685 176.866L880.753 246.198Z" fill="#C7C7C7" fill-opacity="0.1"/>
<path d="M880.187 246.481C879.905 246.481 879.905 246.481 880.187 246.481C879.905 246.481 879.905 246.481 879.905 246.198L857.003 188.469V188.186L857.286 187.903L970.381 174.602C970.664 174.602 970.664 174.602 970.664 174.885C970.664 175.168 970.664 175.168 970.664 175.168L880.187 246.481ZM857.851 188.752L880.187 245.632L968.967 175.734L857.851 188.752Z" fill="#C7C7C7" fill-opacity="0.1"/>
<path d="M913.268 260.347C912.985 260.347 912.985 260.347 912.985 260.064C912.985 259.781 912.985 259.781 913.268 259.781L1058.03 183.941H1058.31V184.224L1024.1 258.083L1023.82 258.366L913.268 260.347ZM1057.46 185.073L914.682 259.781L1023.82 257.8L1057.46 185.073Z" fill="#C7C7C7" fill-opacity="0.1"/>
<path d="M913.268 260.347C912.985 260.347 912.985 260.347 913.268 260.347C912.985 260.064 912.985 260.064 912.985 259.781L970.098 174.885L970.381 174.602L1058.31 183.658C1058.6 183.658 1058.6 183.658 1058.6 183.941C1058.6 184.224 1058.6 184.224 1058.31 184.224L913.268 260.347ZM970.381 175.451L914.116 258.932L1056.9 184.224L970.381 175.451Z" fill="#C7C7C7" fill-opacity="0.1"/>
<path d="M639.295 387.974L538.64 349.771L538.357 349.488V349.205L684.816 238.84H685.098C685.098 238.84 685.381 239.123 685.098 239.123L639.578 387.691C639.578 387.691 639.578 387.974 639.295 387.974ZM539.488 349.488L639.012 387.125L684.533 239.972L539.488 349.488Z" fill="#C7C7C7" fill-opacity="0.1"/>
<path d="M639.295 387.974C639.295 387.974 639.012 387.974 639.012 387.691C639.012 387.408 639.012 387.408 639.012 387.125L783.209 258.932C783.209 258.932 783.491 258.932 783.774 258.932C783.774 258.932 784.057 259.215 783.774 259.498L734.012 357.695C734.012 357.695 734.012 357.978 733.729 357.978L639.295 387.974ZM782.078 260.913L640.709 386.842L733.164 357.129L782.078 260.913Z" fill="#C7C7C7" fill-opacity="0.1"/>
<path d="M639.295 387.974C639.012 387.691 639.012 387.691 639.012 387.408L685.099 238.84C685.099 238.557 685.381 238.557 685.381 238.557L783.491 258.649C783.491 258.649 783.774 258.649 783.774 258.932V259.215L639.295 387.974C639.578 387.974 639.295 387.974 639.295 387.974ZM685.664 239.406L640.143 386.276L782.643 259.215L685.664 239.406Z" fill="#C7C7C7" fill-opacity="0.1"/>
<path d="M835.515 365.901L733.729 357.694C733.447 357.694 733.447 357.694 733.447 357.412V357.129L879.905 245.915C879.905 245.915 880.188 245.915 880.471 245.915C880.471 245.915 880.753 246.198 880.471 246.198L835.798 365.335C835.798 365.618 835.515 365.901 835.515 365.901ZM734.578 357.129L835.232 365.052L879.34 247.33L734.578 357.129Z" fill="#C7C7C7" fill-opacity="0.1"/>
<path d="M733.729 357.694C733.447 357.694 733.447 357.694 733.729 357.694C733.447 357.411 733.447 357.411 733.447 357.128L783.209 258.932L783.491 258.649L880.188 245.632C880.471 245.632 880.471 245.632 880.471 245.915C880.471 246.198 880.471 246.198 880.471 246.198L733.729 357.694ZM783.491 259.498L734.578 355.997L878.774 246.481L783.491 259.498Z" fill="#C7C7C7" fill-opacity="0.1"/>
<path d="M893.476 405.236L835.232 365.901C835.232 365.901 835.232 365.901 834.95 365.618V365.335L912.703 259.781C912.703 259.781 912.985 259.498 912.985 259.781C913.268 259.781 913.268 260.064 913.268 260.064L893.759 404.953C893.759 404.953 893.759 405.236 893.476 405.236C893.759 405.236 893.476 405.236 893.476 405.236ZM836.081 365.335L893.476 404.104L912.703 261.196L836.081 365.335Z" fill="#C7C7C7" fill-opacity="0.1"/>
<path d="M835.515 365.901C835.515 365.901 835.232 365.901 835.515 365.901C835.232 365.901 835.232 365.618 835.232 365.335L879.622 246.198C879.622 246.198 879.622 245.915 879.905 245.915H880.188L913.268 259.781C913.268 259.781 913.551 259.781 913.551 260.064V260.347L835.798 365.901H835.515ZM880.188 246.764L836.646 363.354L912.703 260.347L880.188 246.764Z" fill="#C7C7C7" fill-opacity="0.1"/>
<path d="M893.477 405.236C893.477 405.236 893.194 405.236 893.194 404.953C893.194 404.953 893.194 404.67 893.194 404.387L1023.54 257.517H1023.82C1023.82 257.517 1024.1 257.517 1024.1 257.8L1081.5 343.828V344.111C1081.5 344.111 1081.5 344.394 1081.21 344.394L893.477 405.236ZM1023.82 258.649L894.608 404.104L1080.65 343.828L1023.82 258.649Z" fill="#C7C7C7" fill-opacity="0.1"/>
<path d="M893.477 405.236C893.194 405.236 893.194 404.953 893.194 404.953L912.703 260.064C912.703 259.781 912.986 259.781 912.986 259.781L1023.82 257.8C1023.82 257.8 1024.1 257.8 1024.1 258.083V258.366L893.477 405.236C893.759 405.236 893.759 405.236 893.477 405.236ZM913.551 260.347L894.042 403.821L1022.97 258.366L913.551 260.347Z" fill="#C7C7C7" fill-opacity="0.1"/>
<path d="M431.765 533.995C431.765 533.995 431.482 533.995 431.765 533.995C431.482 533.712 431.482 533.712 431.482 533.429L538.64 349.205C538.64 348.922 538.923 348.922 538.923 348.922C539.206 348.922 539.206 349.205 539.206 349.205L527.613 479.095C527.613 479.095 527.613 479.378 527.331 479.378L431.765 533.995C432.048 533.995 431.765 533.995 431.765 533.995ZM538.357 350.903L432.896 532.58L527.048 479.095L538.357 350.903Z" fill="#C7C7C7" fill-opacity="0.1"/>
<path d="M616.959 513.337C616.676 513.337 616.676 513.337 616.959 513.337L527.331 479.661L527.048 479.378V479.096L639.012 387.408H639.295L639.578 387.691L617.241 513.337C617.241 513.337 617.241 513.337 616.959 513.337ZM527.896 479.378L616.393 512.771L638.729 388.54L527.896 479.378Z" fill="#C7C7C7" fill-opacity="0.1"/>
<path d="M527.331 479.661C527.331 479.661 527.048 479.661 527.331 479.661C527.048 479.661 527.048 479.378 527.048 479.378L538.64 349.488C538.64 349.488 538.64 349.205 538.923 349.205H539.206L639.578 387.408L639.86 387.691V387.974L527.331 479.661ZM539.206 350.054L527.613 478.812L638.447 387.974L539.206 350.054Z" fill="#C7C7C7" fill-opacity="0.1"/>
<path d="M616.959 513.337C616.676 513.337 616.676 513.337 616.959 513.337C616.676 513.054 616.676 513.054 616.676 512.771L733.447 357.128C733.447 357.128 733.729 356.845 734.012 357.128C734.295 357.128 734.295 357.411 734.295 357.694L704.042 444.288C704.042 444.288 704.042 444.288 704.042 444.571L616.959 513.337ZM732.598 359.392L618.938 511.073L703.194 443.722L732.598 359.392Z" fill="#C7C7C7" fill-opacity="0.1"/>
<path d="M616.959 513.337C616.676 513.337 616.676 513.337 616.959 513.337C616.676 513.337 616.676 513.054 616.676 513.054L639.012 387.408C639.012 387.408 639.012 387.125 639.295 387.125L733.729 356.846C734.012 356.846 734.012 356.846 734.012 356.846V357.129L617.241 512.771C616.959 513.337 616.959 513.337 616.959 513.337ZM639.578 387.974L617.524 511.922L732.598 358.261L639.578 387.974Z" fill="#C7C7C7" fill-opacity="0.1"/>
<path d="M863.789 447.118L703.194 444.288C702.911 444.288 702.911 444.288 702.911 444.005C702.911 443.722 702.911 443.722 703.194 443.722L835.233 365.335H835.515C835.515 365.335 835.798 365.335 835.798 365.618L864.355 446.835V447.118C864.072 447.118 864.072 447.118 863.789 447.118ZM704.608 443.722L863.506 446.552L835.233 366.184L704.608 443.722Z" fill="#C7C7C7" fill-opacity="0.1"/>
<path d="M703.477 444.288C703.194 444.288 703.194 444.288 703.477 444.288C703.194 444.005 703.194 444.005 703.194 443.722L733.447 357.129C733.447 356.846 733.73 356.846 733.73 356.846L835.515 365.052C835.798 365.052 835.798 365.052 835.798 365.335C835.798 365.618 835.798 365.618 835.515 365.618L703.477 444.288ZM733.73 357.695L703.759 443.156L834.102 365.618L733.73 357.695Z" fill="#C7C7C7" fill-opacity="0.1"/>
<path d="M933.908 453.91L863.789 447.118C863.789 447.118 863.506 447.118 863.506 446.835V446.552L893.194 404.67L893.477 404.387H893.759L934.191 453.061V453.344C934.191 453.91 934.191 453.91 933.908 453.91ZM864.637 446.552L933.343 453.344L893.759 405.519L864.637 446.552Z" fill="#C7C7C7" fill-opacity="0.1"/>
<path d="M863.789 447.118C863.506 447.118 863.506 447.118 863.506 446.835L834.95 365.618C834.95 365.335 834.95 365.335 834.95 365.335H835.232L893.194 404.67C893.194 404.67 893.194 404.67 893.476 404.953V405.236L863.789 447.118C864.072 447.118 864.072 447.118 863.789 447.118ZM836.081 366.467L864.072 445.986L893.194 404.953L836.081 366.467Z" fill="#C7C7C7" fill-opacity="0.1"/>
<path d="M933.908 453.91C933.908 453.91 933.625 453.91 933.625 453.627C933.625 453.344 933.625 453.344 933.625 453.061L1080.93 343.545C1080.93 343.545 1081.21 343.545 1081.5 343.545C1081.5 343.545 1081.78 343.828 1081.5 344.111L1020.14 437.78C1020.14 437.78 1020.14 437.78 1019.86 438.063L933.908 453.91ZM1079.8 345.526L935.322 453.061L1019.58 437.497L1079.8 345.526Z" fill="#C7C7C7" fill-opacity="0.1"/>
<path d="M933.908 453.91L893.194 404.953V404.67C893.194 404.67 893.194 404.387 893.477 404.387L1081.21 343.545C1081.5 343.545 1081.5 343.545 1081.5 343.828C1081.5 344.111 1081.5 344.111 1081.5 344.394L933.908 453.91C934.191 453.91 934.191 453.91 933.908 453.91ZM894.042 404.953L933.908 453.061L1079.24 344.96L894.042 404.953Z" fill="#C7C7C7" fill-opacity="0.1"/>
<path d="M326.869 603.609C326.586 603.609 326.586 603.609 326.586 603.326C326.586 603.043 326.586 603.043 326.586 603.043L431.482 533.429C431.482 533.429 431.765 533.429 432.048 533.429L480.396 581.254V581.537L480.113 581.82L326.869 603.609ZM431.765 534.278L328.566 602.76L479.548 581.254L431.765 534.278Z" fill="#C7C7C7" fill-opacity="0.1"/>
<path d="M480.113 581.82C479.831 581.82 479.831 581.82 480.113 581.82C479.831 581.537 479.831 581.537 479.831 581.254L527.048 479.096L527.331 478.813C527.613 478.813 527.613 478.813 527.613 479.096L550.515 561.728C550.515 562.01 550.515 562.01 550.232 562.293L480.113 581.82ZM527.048 480.51L480.679 580.971L549.667 562.011L527.048 480.51Z" fill="#C7C7C7" fill-opacity="0.1"/>
<path d="M480.113 581.819C479.831 581.819 479.831 581.819 480.113 581.819L431.482 533.995V533.712C431.482 533.712 431.482 533.429 431.765 533.429L527.331 479.096H527.613C527.613 479.096 527.896 479.378 527.613 479.378L480.396 581.536C480.396 581.819 480.113 581.819 480.113 581.819ZM432.331 533.712L479.831 580.688L526.482 479.944L432.331 533.712Z" fill="#C7C7C7" fill-opacity="0.1"/>
<path d="M668.982 586.63L549.95 562.576C549.95 562.576 549.667 562.576 549.667 562.293V562.01L616.393 513.054H616.676C616.676 513.054 616.959 513.054 616.959 513.337L669.265 586.347V586.63C669.265 586.63 669.265 586.63 668.982 586.63ZM550.798 562.01L668.134 585.781L616.676 513.62L550.798 562.01Z" fill="#C7C7C7" fill-opacity="0.1"/>
<path d="M549.95 562.576C549.667 562.576 549.667 562.293 549.667 562.293L526.765 479.661V479.378H527.048L616.676 513.054L616.959 513.337C616.959 513.337 616.959 513.62 616.676 513.62L549.95 562.576C550.232 562.576 550.232 562.576 549.95 562.576ZM527.896 479.944L550.515 561.444L616.393 513.054L527.896 479.944Z" fill="#C7C7C7" fill-opacity="0.1"/>
<path d="M668.982 586.63C668.7 586.347 668.7 586.347 668.7 586.064L702.911 443.722C702.911 443.439 703.194 443.439 703.194 443.439C703.477 443.439 703.477 443.722 703.477 443.722L689.057 578.99C689.057 578.99 689.057 579.273 688.774 579.273L668.982 586.63ZM702.346 449.382L669.548 585.781L688.774 578.99L702.346 449.382Z" fill="#C7C7C7" fill-opacity="0.1"/>
<path d="M668.982 586.63C668.982 586.63 668.7 586.63 668.7 586.347L616.393 513.337C616.393 513.054 616.393 513.054 616.393 512.771L702.911 443.722H703.194L703.476 444.005L669.265 586.347C669.265 586.347 669.265 586.63 668.982 586.63ZM617.241 513.054L668.7 585.215L702.628 444.854L617.241 513.054Z" fill="#C7C7C7" fill-opacity="0.1"/>
<path d="M843.149 593.705L689.057 579.556C688.774 579.556 688.774 579.556 688.774 579.273V578.99L863.789 446.552H864.072L864.354 446.835L843.714 593.422C843.432 593.422 843.432 593.705 843.149 593.705ZM689.905 578.99L842.866 592.856L863.506 447.401L689.905 578.99Z" fill="#C7C7C7" fill-opacity="0.1"/>
<path d="M689.057 579.556C688.774 579.556 688.774 579.556 689.057 579.556C688.774 579.556 688.774 579.273 688.774 579.273L703.194 444.005C703.194 443.722 703.476 443.722 703.476 443.722L864.072 446.552C864.354 446.552 864.354 446.552 864.354 446.835C864.354 447.118 864.354 447.118 864.354 447.118L689.057 579.556ZM703.759 444.288L689.339 578.424L862.941 447.118L703.759 444.288Z" fill="#C7C7C7" fill-opacity="0.1"/>
<path d="M843.149 593.705C843.149 593.705 842.866 593.705 842.866 593.422V593.139L933.625 453.344L933.908 453.061C934.191 453.061 934.191 453.344 934.191 453.344L922.316 586.913C922.316 587.196 922.033 587.196 922.033 587.196L843.149 593.705ZM933.625 455.042L843.997 592.856L922.033 586.63L933.625 455.042Z" fill="#C7C7C7" fill-opacity="0.1"/>
<path d="M843.149 593.705C842.866 593.705 842.866 593.422 842.866 593.422L863.506 446.835C863.506 446.552 863.789 446.552 863.789 446.552L933.908 453.344C933.908 453.344 934.191 453.344 934.191 453.627V453.91L843.432 593.705H843.149ZM864.072 447.118L843.432 591.724L933.06 453.91L864.072 447.118Z" fill="#C7C7C7" fill-opacity="0.1"/>
<path d="M1027.49 610.684L922.033 587.479C922.033 587.479 921.75 587.479 921.75 587.196V586.913L1019.29 437.497L1019.58 437.214C1019.86 437.214 1019.86 437.497 1019.86 437.497L1027.49 610.118C1027.78 610.401 1027.78 610.684 1027.49 610.684C1027.78 610.684 1027.49 610.684 1027.49 610.684ZM922.881 586.913L1027.21 609.835L1019.58 438.629L922.881 586.913Z" fill="#C7C7C7" fill-opacity="0.1"/>
<path d="M922.315 587.479C922.033 587.479 922.033 587.479 922.315 587.479C922.033 587.479 922.033 587.196 922.033 587.196L933.908 453.627C933.908 453.344 933.908 453.344 934.191 453.344L1019.86 437.497C1019.86 437.497 1020.14 437.497 1020.14 437.78V438.063L922.598 587.479C922.315 587.479 922.315 587.479 922.315 587.479ZM934.191 453.91L922.598 585.781L1019.01 438.346L934.191 453.91Z" fill="#C7C7C7" fill-opacity="0.1"/>
<path d="M262.405 696.712C262.405 696.712 262.122 696.712 262.122 696.429V696.146L326.869 603.043C326.869 603.043 327.152 603.043 327.152 602.76C327.152 602.76 327.435 602.76 327.435 603.043L374.369 677.752V678.035L374.086 678.318L262.405 696.712ZM326.869 603.892L262.97 695.863L373.238 677.752L326.869 603.892Z" fill="#C7C7C7" fill-opacity="0.1"/>
<path d="M428.089 681.148L374.086 678.601C373.804 678.601 373.804 678.601 373.804 678.318V678.035L479.831 581.536C479.831 581.536 480.113 581.536 480.396 581.536C480.396 581.536 480.679 581.819 480.396 582.102L428.372 681.431C428.372 681.148 428.089 681.148 428.089 681.148ZM374.935 677.752L427.807 680.299L478.7 582.951L374.935 677.752Z" fill="#C7C7C7" fill-opacity="0.1"/>
<path d="M374.086 678.318C373.804 678.318 373.804 678.318 373.804 678.035L326.869 603.326V603.043L327.152 602.76L480.396 580.971C480.679 580.971 480.679 580.97 480.679 581.253V581.536L374.086 678.318ZM327.435 603.609L374.086 677.469L478.982 582.102L327.435 603.609Z" fill="#C7C7C7" fill-opacity="0.1"/>
<path d="M428.089 681.148C428.089 681.148 427.807 681.148 427.807 680.865V680.582L549.949 562.01H550.232C550.232 562.01 550.515 562.01 550.515 562.293L578.506 645.774V646.057C578.506 646.057 578.506 646.34 578.223 646.34L428.089 681.148ZM549.949 562.859L429.22 680.299L577.658 645.774L549.949 562.859Z" fill="#C7C7C7" fill-opacity="0.1"/>
<path d="M428.089 681.148C428.089 681.148 427.807 681.148 428.089 681.148C427.807 680.865 427.807 680.865 427.807 680.582L479.83 581.254C479.83 581.254 479.83 580.971 480.113 580.971L550.232 561.727C550.515 561.727 550.515 561.727 550.515 562.01C550.515 562.01 550.515 562.293 550.515 562.576L428.089 681.148ZM480.396 581.82L429.503 678.884L548.819 562.859L480.396 581.82Z" fill="#C7C7C7" fill-opacity="0.1"/>
<path d="M648.625 693.599L577.658 646.057L577.375 645.774C577.375 645.774 577.375 645.491 577.658 645.491L668.699 586.064H668.982L669.265 586.347L648.908 693.316C649.19 693.316 648.908 693.316 648.625 693.599C648.908 693.599 648.908 693.599 648.625 693.599ZM578.789 645.774L648.625 692.467L668.699 586.913L578.789 645.774Z" fill="#C7C7C7" fill-opacity="0.1"/>
<path d="M577.941 646.057C577.658 646.057 577.658 646.057 577.658 645.774L549.667 562.293V562.01H549.95L668.982 586.064C668.982 586.064 669.265 586.064 669.265 586.347C669.265 586.347 669.265 586.63 668.982 586.63L577.941 646.057C578.224 646.057 578.224 646.057 577.941 646.057ZM550.515 562.576L578.223 645.208L668.134 586.347L550.515 562.576Z" fill="#C7C7C7" fill-opacity="0.1"/>
<path d="M772.182 727.84L648.626 693.599C648.626 693.599 648.343 693.599 648.343 693.316V693.033L688.492 578.99L688.774 578.707C688.774 578.707 689.057 578.707 689.057 578.99L772.465 727.274C772.465 727.274 772.465 727.557 772.182 727.84C772.465 727.84 772.182 727.84 772.182 727.84ZM649.191 693.033L771.334 726.991L689.057 580.122L649.191 693.033Z" fill="#C7C7C7" fill-opacity="0.1"/>
<path d="M648.626 693.599C648.343 693.599 648.343 693.316 648.343 693.316L668.7 586.347C668.7 586.347 668.7 586.064 668.983 586.064L688.774 578.99H689.057V579.273L649.191 693.316C648.908 693.316 648.908 693.599 648.626 693.599ZM669.265 586.347L649.756 688.505L688.209 579.556L669.265 586.347Z" fill="#C7C7C7" fill-opacity="0.1"/>
<path d="M772.182 727.84C772.182 727.84 771.899 727.84 772.182 727.84C771.899 727.557 771.899 727.557 771.899 727.274L842.866 593.139C842.866 592.856 843.149 592.856 843.149 592.856C843.432 592.856 843.432 593.139 843.432 593.139L826.75 704.352C826.75 704.352 826.75 704.635 826.467 704.635L772.182 727.84ZM842.583 595.403L773.03 726.708L826.185 704.352L842.583 595.403Z" fill="#C7C7C7" fill-opacity="0.1"/>
<path d="M772.182 727.84C772.182 727.84 771.899 727.84 771.899 727.557L688.774 579.273V578.99L689.057 578.707L843.149 592.856C843.149 592.856 843.432 592.856 843.432 593.139V593.422L772.464 727.557C772.464 727.557 772.464 727.84 772.182 727.84ZM689.622 579.556L772.182 726.708L842.583 593.705L689.622 579.556Z" fill="#C7C7C7" fill-opacity="0.1"/>
<path d="M826.467 704.918C826.467 704.918 826.185 704.918 826.185 704.635V704.352L922.033 586.913C922.033 586.913 922.316 586.63 922.316 586.913H922.598L990.173 674.356V674.639L989.89 674.922L826.467 704.918ZM922.033 587.762L827.033 704.069L988.759 674.356L922.033 587.762Z" fill="#C7C7C7" fill-opacity="0.1"/>
<path d="M826.467 704.918C826.185 704.918 826.185 704.918 826.467 704.918C826.185 704.918 826.185 704.635 826.185 704.635L842.866 593.422C842.866 593.139 843.149 593.139 843.149 593.139L922.316 586.913C922.598 586.913 922.598 586.913 922.598 587.196V587.479L826.467 704.918ZM843.432 593.705L826.75 703.504L921.185 587.762L843.432 593.705Z" fill="#C7C7C7" fill-opacity="0.1"/>
<path d="M1006.85 687.373C1006.57 687.373 1006.57 687.373 1006.85 687.373L989.608 674.922C989.325 674.922 989.325 674.639 989.608 674.356L1027.49 610.118C1027.49 609.835 1027.78 609.835 1028.06 609.835C1028.34 609.835 1028.34 610.118 1028.34 610.118L1007.7 686.807C1007.14 687.09 1006.85 687.373 1006.85 687.373ZM990.173 674.639L1006.57 686.524L1026.65 612.948L990.173 674.639Z" fill="#C7C7C7" fill-opacity="0.1"/>
<path d="M989.607 674.922L921.75 587.196V586.913L922.033 586.63L1027.49 609.835C1027.49 609.835 1027.78 609.835 1027.78 610.118V610.401L989.89 674.639C989.89 674.922 989.89 674.922 989.607 674.922ZM923.164 587.762L989.89 674.073L1027.21 610.684L923.164 587.762Z" fill="#C7C7C7" fill-opacity="0.1"/>
<path d="M159.488 783.023C159.206 783.023 159.206 783.023 159.206 782.74C159.206 782.457 159.206 782.457 159.488 782.174L374.087 677.752C374.369 677.752 374.369 677.752 374.652 677.752C374.652 677.752 374.652 678.035 374.652 678.318L314.429 752.46C314.429 752.46 314.429 752.46 314.146 752.46L159.488 783.023ZM372.673 679.167L162.033 781.891L313.863 751.894L372.673 679.167Z" fill="#C7C7C7" fill-opacity="0.1"/>
<path d="M159.488 783.023C159.488 783.023 159.206 783.023 159.206 782.74C159.206 782.457 159.206 782.457 159.206 782.174L262.122 696.146C262.122 696.146 262.122 696.146 262.405 696.146L374.087 677.752H374.369C374.369 677.752 374.369 678.035 374.369 678.318L159.488 783.023ZM262.405 696.712L162.033 781.042L371.825 678.884L262.405 696.712Z" fill="#C7C7C7" fill-opacity="0.1"/>
<path d="M457.494 756.705L314.146 752.46C313.863 752.46 313.863 752.46 313.863 752.177C313.863 751.894 313.863 751.894 314.146 751.894L428.09 680.582H428.372C428.372 680.582 428.655 680.582 428.655 680.865L458.06 756.705V756.988C457.494 756.705 457.494 756.705 457.494 756.705ZM315.277 751.894L456.929 756.139L427.807 681.431L315.277 751.894Z" fill="#C7C7C7" fill-opacity="0.1"/>
<path d="M314.146 752.46C314.146 752.46 313.863 752.46 314.146 752.46C313.863 752.177 313.863 751.894 313.863 751.894L373.804 677.752C373.804 677.752 374.087 677.469 374.087 677.752L428.09 680.299C428.372 680.299 428.372 680.299 428.372 680.582C428.372 680.865 428.372 680.865 428.09 680.865L314.146 752.46ZM374.087 678.318L315.56 750.479L426.676 680.865L374.087 678.318Z" fill="#C7C7C7" fill-opacity="0.1"/>
<path d="M530.723 810.472L457.211 756.705C457.211 756.705 457.211 756.422 456.929 756.422V756.139L577.658 645.491C577.658 645.491 577.941 645.491 578.223 645.491L578.506 645.774L531.289 810.189C531.006 810.189 531.006 810.472 530.723 810.472ZM458.06 756.422L530.723 809.623L577.375 646.906L458.06 756.422Z" fill="#C7C7C7" fill-opacity="0.1"/>
<path d="M457.494 756.705C457.211 756.705 457.211 756.705 457.211 756.422L427.807 680.582V680.299C427.807 680.299 427.807 680.016 428.089 680.016L577.941 644.925C578.223 644.925 578.223 644.925 578.223 645.208C578.223 645.491 578.223 645.491 578.223 645.774L457.494 756.705ZM428.655 680.865L457.777 755.856L577.092 646.34L428.655 680.865Z" fill="#C7C7C7" fill-opacity="0.1"/>
<path d="M530.723 810.472C530.723 810.472 530.44 810.472 530.723 810.472C530.44 810.189 530.44 809.906 530.44 809.906L648.342 693.033C648.342 693.033 648.625 693.033 648.908 693.033C648.908 693.033 649.19 693.316 648.908 693.599L627.985 745.102C627.985 745.102 627.985 745.102 627.985 745.385L530.723 810.472C531.006 810.472 530.723 810.472 530.723 810.472ZM647.777 694.731L533.833 807.925L627.702 744.537L647.777 694.731Z" fill="#C7C7C7" fill-opacity="0.1"/>
<path d="M530.723 810.472C530.44 810.472 530.44 810.189 530.44 809.906L577.658 645.491C577.658 645.491 577.658 645.208 577.94 645.208H578.223L648.908 692.75L649.19 693.033V693.316L530.723 810.472C531.006 810.472 531.006 810.472 530.723 810.472ZM578.223 646.34L531.571 809.057L648.059 693.316L578.223 646.34Z" fill="#C7C7C7" fill-opacity="0.1"/>
<path d="M692.45 828.3C692.45 828.3 692.167 828.3 692.45 828.3L627.42 744.82V744.537L627.703 744.254L772.182 726.991C772.465 726.991 772.465 726.991 772.465 727.274V727.557L692.45 828.3C692.732 828.3 692.732 828.3 692.45 828.3ZM628.551 744.82L692.732 827.168L771.616 727.557L628.551 744.82Z" fill="#C7C7C7" fill-opacity="0.1"/>
<path d="M627.703 745.102C627.703 745.102 627.703 744.819 627.703 745.102C627.42 744.819 627.42 744.819 627.42 744.536L648.343 693.033C648.343 692.75 648.625 692.75 648.625 692.75L772.182 726.991C772.465 726.991 772.465 727.274 772.465 727.274C772.465 727.557 772.182 727.557 772.182 727.557L627.703 745.102ZM648.908 693.599L628.268 744.253L770.203 727.274L648.908 693.599Z" fill="#C7C7C7" fill-opacity="0.1"/>
<path d="M692.45 828.3C692.45 828.3 692.167 828.3 692.167 828.017C692.167 827.734 692.167 827.734 692.167 827.451L825.902 704.069H826.185C826.185 704.069 826.468 704.069 826.468 704.352L851.914 784.437V784.72C851.914 784.72 851.914 785.003 851.631 785.003L692.45 828.3ZM826.185 705.201L693.863 827.168L851.348 784.437L826.185 705.201Z" fill="#C7C7C7" fill-opacity="0.1"/>
<path d="M692.45 828.3C692.167 828.017 692.167 827.734 692.167 827.734L771.899 727.274L826.185 704.352C826.468 704.352 826.468 704.352 826.75 704.352C826.75 704.635 826.75 704.635 826.75 704.918L692.45 828.3C692.732 828.3 692.45 828.3 692.45 828.3ZM772.465 727.84L695.56 824.622L824.488 705.767L772.465 727.84Z" fill="#C7C7C7" fill-opacity="0.1"/>
<path d="M851.631 785.004C851.631 785.004 851.349 785.004 851.349 784.721C851.349 784.438 851.349 784.438 851.349 784.155L989.325 674.073C989.325 674.073 989.608 674.073 989.89 674.073C989.89 674.073 990.173 674.356 989.89 674.639L921.185 765.761C921.185 765.761 921.185 765.761 920.902 765.761L851.631 785.004ZM987.628 676.62L853.328 783.872L920.902 765.195L987.628 676.62Z" fill="#C7C7C7" fill-opacity="0.1"/>
<path d="M851.631 785.004C851.348 785.004 851.348 785.004 851.348 784.721L825.902 704.636V704.353C825.902 704.353 825.902 704.07 826.185 704.07L989.607 674.073C989.89 674.073 989.89 674.073 989.89 674.356C989.89 674.639 989.89 674.639 989.89 674.639L851.631 785.004C851.914 785.004 851.631 785.004 851.631 785.004ZM826.75 704.919L851.914 784.155L988.476 675.205L826.75 704.919Z" fill="#C7C7C7" fill-opacity="0.1"/>
<path d="M920.902 766.044C920.619 766.044 920.619 766.044 920.619 765.761V765.478L1006.57 686.807H1006.85C1006.85 686.807 1007.14 686.807 1007.14 687.09L1046.72 761.233V761.516L1046.44 761.799L920.902 766.044ZM1006.57 687.656L921.75 765.478L1045.59 761.233L1006.57 687.656Z" fill="#C7C7C7" fill-opacity="0.1"/>
<path d="M920.902 766.043C920.902 766.043 920.619 766.043 920.902 766.043C920.619 765.76 920.619 765.76 920.619 765.477L989.325 674.356C989.325 674.073 989.607 674.073 989.89 674.356L1006.85 686.807C1006.85 686.807 1006.85 687.09 1007.14 687.09V687.373L920.902 766.043C921.185 766.043 920.902 766.043 920.902 766.043ZM989.89 675.205L923.729 762.931L1006.29 687.09L989.89 675.205Z" fill="#C7C7C7" fill-opacity="0.1"/>
<path d="M197.941 932.156L58.2681 861.41L57.9854 861.127V860.844L158.923 782.174H159.206C159.206 782.174 159.488 782.174 159.488 782.457L197.941 931.59C198.223 931.873 198.223 932.156 197.941 932.156C198.223 932.156 197.941 932.156 197.941 932.156ZM59.1163 861.127L197.375 931.024L159.206 783.023L59.1163 861.127Z" fill="#C7C7C7" fill-opacity="0.1"/>
<path d="M197.94 932.156C197.94 932.156 197.658 932.156 197.658 931.873V931.59L313.863 751.894L314.146 751.611C314.429 751.611 314.429 751.894 314.429 751.894L319.801 900.462C319.801 900.745 319.801 900.745 319.518 900.745L197.94 932.156ZM313.863 753.309L198.789 931.307L319.235 900.462L313.863 753.309Z" fill="#C7C7C7" fill-opacity="0.1"/>
<path d="M197.941 932.156C197.658 932.156 197.658 932.156 197.658 931.873L159.206 782.74V782.457C159.206 782.457 159.206 782.457 159.488 782.174L314.146 751.611C314.146 751.611 314.429 751.611 314.429 751.894V752.177L198.223 931.873C198.223 932.156 197.941 932.156 197.941 932.156ZM160.054 783.023L198.223 931.024L313.581 752.743L160.054 783.023Z" fill="#C7C7C7" fill-opacity="0.1"/>
<path d="M319.518 901.028C319.518 901.028 319.235 901.028 319.235 900.745C319.235 900.745 319.235 900.462 319.235 900.179L457.212 756.139H457.494C457.494 756.139 457.777 756.139 457.777 756.422L480.679 857.165C480.679 857.448 480.679 857.448 480.396 857.448L319.518 901.028ZM457.212 757.271L320.649 899.896L479.831 856.882L457.212 757.271Z" fill="#C7C7C7" fill-opacity="0.1"/>
<path d="M319.518 901.028C319.235 901.028 319.235 900.745 319.235 900.745L313.863 752.177V751.894H314.146L457.494 756.139C457.494 756.139 457.777 756.139 457.777 756.422V756.705L319.518 901.028C319.801 900.745 319.518 901.028 319.518 901.028ZM314.429 752.46L319.801 899.613L456.646 756.705L314.429 752.46Z" fill="#C7C7C7" fill-opacity="0.1"/>
<path d="M499.057 879.521L479.831 857.448C479.831 857.165 479.831 857.165 479.831 856.882L530.441 809.906C530.441 809.906 530.723 809.906 531.006 809.906C531.006 809.906 531.289 810.189 531.006 810.472L499.339 879.521C499.339 879.238 499.339 879.521 499.057 879.521ZM480.679 857.165L499.057 878.389L529.592 811.604L480.679 857.165Z" fill="#C7C7C7" fill-opacity="0.1"/>
<path d="M480.113 857.448C479.831 857.448 479.831 857.165 479.831 857.165L456.929 756.422C456.929 756.139 456.929 756.139 457.211 756.139H457.494L530.723 809.906C530.723 809.906 530.723 810.189 531.006 810.189V810.472L480.113 857.448C480.396 857.448 480.396 857.448 480.113 857.448ZM458.06 757.271L480.679 856.316L530.441 809.906L458.06 757.271Z" fill="#C7C7C7" fill-opacity="0.1"/>
<path d="M499.057 879.521C499.057 879.521 498.774 879.521 498.774 879.238V878.955L627.42 744.536H627.702L627.985 744.82L643.253 868.767V869.05H642.97L499.057 879.521ZM627.42 745.385L499.905 878.672L642.405 868.201L627.42 745.385Z" fill="#C7C7C7" fill-opacity="0.1"/>
<path d="M499.057 879.521C498.774 879.238 498.774 879.238 498.774 878.955L530.441 809.906C530.441 809.906 530.441 809.906 530.441 809.623L627.42 744.253C627.702 744.253 627.702 744.253 627.985 744.253C627.985 744.253 627.985 744.536 627.985 744.819L499.057 879.521C499.339 879.521 499.339 879.521 499.057 879.521ZM531.006 810.472L500.47 877.257L625.441 746.8L531.006 810.472Z" fill="#C7C7C7" fill-opacity="0.1"/>
<path d="M642.971 869.05C642.688 869.05 642.688 868.767 642.688 868.767L627.42 744.82C627.42 744.537 627.42 744.536 627.703 744.536C627.985 744.536 627.985 744.536 627.985 744.536L692.732 827.734C692.732 828.017 692.732 828.017 692.732 828.3L642.971 869.05C643.253 868.767 643.253 869.05 642.971 869.05ZM628.268 745.951L643.253 867.918L691.884 828.017L628.268 745.951Z" fill="#C7C7C7" fill-opacity="0.1"/>
<path d="M712.807 904.707C712.524 904.707 712.524 904.707 712.524 904.424V904.141L851.348 784.438H851.631L851.914 784.72L859.548 901.311V901.594H859.265L712.807 904.707ZM851.348 785.569L713.938 904.141L858.982 901.028L851.348 785.569Z" fill="#C7C7C7" fill-opacity="0.1"/>
<path d="M712.807 904.707C712.524 904.707 712.524 904.424 712.524 904.424L692.167 828.017C692.167 827.734 692.167 827.734 692.45 827.451L851.631 784.155C851.914 784.155 851.914 784.155 851.914 784.438C851.914 784.721 851.914 784.721 851.914 785.004L712.807 904.707C713.09 904.707 713.09 904.707 712.807 904.707ZM693.015 828.3L713.09 903.858L850.218 785.57L693.015 828.3Z" fill="#C7C7C7" fill-opacity="0.1"/>
<path d="M859.265 901.594C858.982 901.594 858.982 901.594 859.265 901.594C858.982 901.311 858.982 901.311 858.982 901.028L920.619 765.194C920.619 764.911 920.902 764.911 920.902 764.911C921.185 764.911 921.185 765.194 921.185 765.194L925.709 884.615C925.709 884.898 925.709 884.898 925.426 884.898L859.265 901.594ZM920.619 767.175L859.831 900.745L925.143 884.615L920.619 767.175Z" fill="#C7C7C7" fill-opacity="0.1"/>
<path d="M859.265 901.594C858.983 901.594 858.983 901.311 858.983 901.311L851.349 784.72C851.349 784.438 851.349 784.438 851.631 784.438L920.902 765.477H921.185V765.76L859.548 901.594H859.265ZM851.914 785.004L859.265 899.896L920.054 766.043L851.914 785.004Z" fill="#C7C7C7" fill-opacity="0.1"/>
</svg>
