<svg width="24" height="24" viewBox="0 0 24 24" fill="none" xmlns="http://www.w3.org/2000/svg">
<g clip-path="url(#clip0_856_1125)">
<path d="M18.6981 4.43771H13.4154L15.2192 1.23722C15.4456 0.840539 15.3076 0.335355 14.9109 0.108939C14.5142 -0.117525 14.009 0.0204999 13.7826 0.417186C13.7811 0.41981 13.7796 0.422388 13.7782 0.425012L11.9998 3.58013L10.2215 0.425012C9.99724 0.0271082 9.49285 -0.113635 9.09495 0.110626C8.69704 0.334886 8.55625 0.83932 8.78051 1.23722L10.5843 4.43771H5.30164C3.59979 4.43963 2.22062 5.81879 2.21875 7.52064V20.9171C2.22072 22.6189 3.59984 23.998 5.30164 24H18.6981C20.3999 23.998 21.779 22.6189 21.781 20.9171V7.52069C21.7791 5.81884 20.3999 4.43967 18.6981 4.43771ZM20.1269 20.9171C20.126 21.7059 19.4868 22.345 18.6981 22.3459H5.30164C4.51291 22.345 3.87373 21.7059 3.87284 20.9171V7.52069C3.87368 6.73196 4.51286 6.09273 5.30164 6.09184H11.9991H12.0006H18.6981C19.4868 6.09273 20.126 6.73196 20.1269 7.52069V20.9171Z" fill="#FF312C"/>
<path d="M16.1544 12.6957L12.8267 14.1472V13.0277C12.8268 12.5709 12.4565 12.2005 11.9998 12.2004C11.8859 12.2004 11.7732 12.2239 11.6688 12.2695L7.18343 14.226C6.76514 14.4096 6.57485 14.8975 6.75839 15.3157C6.94136 15.7327 7.42695 15.9234 7.84473 15.7422L11.1725 14.2906V15.4102C11.1725 15.8669 11.5428 16.2373 11.9995 16.2373C12.1134 16.2373 12.2261 16.2138 12.3305 16.1683L16.8158 14.2117C17.2346 14.0291 17.4259 13.5416 17.2433 13.123C17.0607 12.7043 16.5733 12.5129 16.1546 12.6955L16.1544 12.6957Z" fill="#FF312C"/>
</g>
<defs>
<clipPath id="clip0_856_1125">
<rect width="24" height="24" fill="white"/>
</clipPath>
</defs>
</svg>
