<svg width="18" height="18" viewBox="0 0 18 18" fill="none" xmlns="http://www.w3.org/2000/svg">
<g clip-path="url(#clip0_856_515)">
<path d="M9 7.2644C10.6892 7.2644 12.0586 5.89503 12.0586 4.20581C12.0586 2.5166 10.6892 1.14722 9 1.14722C7.31079 1.14722 5.94141 2.5166 5.94141 4.20581C5.94141 5.89503 7.31079 7.2644 9 7.2644Z" fill="white"/>
<path d="M15.1875 7.2644C16.2554 7.2644 17.1211 6.39871 17.1211 5.33081C17.1211 4.26292 16.2554 3.39722 15.1875 3.39722C14.1196 3.39722 13.2539 4.26292 13.2539 5.33081C13.2539 6.39871 14.1196 7.2644 15.1875 7.2644Z" fill="white"/>
<path d="M2.8125 7.2644C3.88039 7.2644 4.74609 6.39871 4.74609 5.33081C4.74609 4.26292 3.88039 3.39722 2.8125 3.39722C1.74461 3.39722 0.878906 4.26292 0.878906 5.33081C0.878906 6.39871 1.74461 7.2644 2.8125 7.2644Z" fill="white"/>
<path d="M4.71762 9.00073C3.95648 8.37712 3.26718 8.45967 2.38711 8.45967C1.07086 8.45967 0 9.5242 0 10.8324V14.6718C0 15.2399 0.463711 15.7019 1.03395 15.7019C3.4958 15.7019 3.19922 15.7464 3.19922 15.5957C3.19922 12.8751 2.87698 10.8799 4.71762 9.00073Z" fill="white"/>
<path d="M9.83693 8.47373C8.29976 8.34552 6.96364 8.47521 5.81119 9.42647C3.88262 10.9712 4.25377 13.0512 4.25377 15.5957C4.25377 16.2689 4.8015 16.8269 5.48494 16.8269C12.9058 16.8269 13.2011 17.0662 13.6412 16.0917C13.7855 15.7622 13.746 15.8669 13.746 12.7143C13.746 10.2102 11.5778 8.47373 9.83693 8.47373Z" fill="white"/>
<path d="M15.6127 8.45971C14.7279 8.45971 14.0423 8.378 13.2822 9.00076C15.1091 10.866 14.8006 12.725 14.8006 15.5957C14.8006 15.7474 14.5544 15.7019 16.929 15.7019C17.5196 15.7019 17.9998 15.2234 17.9998 14.6353V10.8324C17.9998 9.52424 16.929 8.45971 15.6127 8.45971Z" fill="white"/>
</g>
<defs>
<clipPath id="clip0_856_515">
<rect width="18" height="18" fill="white"/>
</clipPath>
</defs>
</svg>
